<svg width="31" height="31" viewBox="0 0 31 31" fill="none" xmlns="http://www.w3.org/2000/svg">
<g id="Group 1">
<g id="Group 9">
<path id="Vector" d="M0.043659 9.80077C0.235736 8.16812 1.06807 6.69553 2.38059 5.67113C5.06966 3.5903 8.97522 4.07049 11.056 6.75956C11.1201 6.82359 11.1521 6.91962 11.1201 7.01566L13.1369 5.8632C13.329 5.76716 13.521 5.73515 13.7131 5.79918C13.9052 5.8632 14.0652 5.99125 14.1933 6.15132L15.3778 8.23215C15.5378 7.88001 15.7939 7.55988 16.0821 7.23975C16.4342 6.88761 16.8824 6.63151 17.3946 6.40742L17.5867 3.78237C17.6507 2.854 18.3229 2.05368 19.2513 1.89362L28.1829 0.00486794C28.407 -0.0271448 28.6311 0.100906 28.6631 0.324996L28.9192 1.57349C28.9512 1.79758 28.8231 2.02167 28.599 2.05368L19.8596 3.8464C19.7635 3.87841 19.6675 3.94244 19.6675 4.07049L19.5394 5.8632C20.7239 5.70314 21.7483 5.76716 21.8444 5.76716C21.9724 5.76716 22.0684 5.83119 22.1325 5.92723C22.1965 6.02327 22.2285 6.15132 22.1965 6.24736C22.1645 6.34339 21.8764 7.52787 21.3001 8.77636H21.6203C22.3566 8.77636 22.9648 9.38461 22.9648 10.0889C22.9648 10.7612 22.4526 11.3054 21.8123 11.4014C21.9404 11.7215 22.0684 12.1377 22.2285 12.6179C22.9008 12.3298 23.8291 12.2337 24.5334 12.2337C28.0868 12.2337 31 15.1149 31 18.7003C31 20.301 30.4238 21.8376 29.3353 23.022C29.0152 23.3742 28.6631 23.6943 28.2789 23.9824C28.0548 24.1425 20.916 29.3606 20.1477 29.9048C19.9876 30.1289 19.8275 30.385 19.6355 30.6091C19.5394 30.7371 19.4114 30.8011 19.2513 30.8011H6.83037C6.6703 30.8011 6.54225 30.7371 6.44621 30.6091C4.04525 27.2797 2.92481 22.798 3.27695 17.6439C3.405 15.6911 3.69311 13.9944 3.98123 12.778L2.76474 13.7383C2.70072 13.8024 2.60468 13.8344 2.50864 13.8344C2.47663 13.8344 2.47663 13.8344 2.44462 13.8344C2.34858 13.8344 2.25254 13.7704 2.18852 13.6743C1.35618 12.6179 1.00404 11.2734 1.16411 9.92882C1.32417 8.58429 2.02845 7.39982 3.08487 6.5995C4.14129 5.76716 5.45382 5.41502 6.79835 5.57509H6.83037H6.86238C7.40659 5.63911 7.9188 5.79918 8.36698 6.02327L9.51944 6.37541C7.63069 4.87081 4.87759 4.77477 2.86078 6.34339C1.74034 7.23975 1.00404 8.48825 0.811966 9.92882C0.619889 11.3694 1.03606 12.778 1.9004 13.8984C2.02845 14.0585 1.99644 14.3146 1.83638 14.4746C1.77235 14.5387 1.67631 14.5707 1.58027 14.5707C1.45222 14.5707 1.35618 14.5066 1.26014 14.4106C0.299762 13.0661 -0.148418 11.4334 0.043659 9.80077ZM19.0272 29.8408C24.6935 22.0937 21.4922 13.1301 20.8199 11.4334H19.1873H19.0592H18.8031H18.387H17.9068H17.4906H17.1065H15.6339H13.2969H12.4966H12.1765H11.6323H5.70992H5.32576C5.29375 11.5295 5.26174 11.6575 5.22973 11.8176C4.52545 14.3786 2.57267 23.3422 7.08647 29.8408H19.0272ZM22.0044 10.1209C22.0044 9.92882 21.8444 9.76876 21.6203 9.76876H20.7879H20.3077H19.8275H19.7315H19.2833H18.8672H18.451H17.9708H17.5546H17.3946H17.1385H16.7543H16.4662H15.858H15.826H15.4418H15.4098H14.9936H14.6095H11.5362H11.0881H10.6399H10.3838H9.96761H9.55145H7.9188H6.73433H6.6703H6.63829H6.09407H5.902H5.77394H5.35778H5.06966H4.94161C4.81356 9.76876 4.68551 9.8648 4.62148 9.96084C4.58947 10.0249 4.55746 10.0569 4.55746 10.1209C4.55746 10.313 4.71752 10.5051 4.94161 10.5051H5.00564H5.64589H5.67791H5.83797H6.31816H6.60627H6.63829H6.99043H7.72672H9.10327H9.35937H9.74353H10.1597H11.0881H11.5362H11.9844H13.329H14.1293H14.9296H14.9936H15.4098H15.5378H15.826H16.6263H17.1705H17.5867H18.0028H18.483H18.8992H19.1873H19.3153H19.7955H20.3397H21.2041H21.7163C21.8444 10.473 22.0044 10.313 22.0044 10.1209ZM20.5318 8.6163L19.3794 8.45624H19.3474L18.9632 8.74435L18.8672 8.80838H18.9312H19.3474H20.4358C20.4678 8.71234 20.4998 8.64831 20.5318 8.6163ZM19.7955 6.63151L19.6995 7.3678L20.7879 6.56748C20.4678 6.56748 20.1477 6.5995 19.7955 6.63151ZM18.8992 4.00646C18.9312 3.55828 19.2833 3.17413 19.7315 3.07809L28.0548 1.3494L27.9588 0.869212L19.4754 2.62991C18.8992 2.75797 18.483 3.23816 18.451 3.81439L18.2909 6.11931C18.451 6.08729 18.6111 6.02327 18.7711 5.99125L18.8992 4.00646ZM16.7223 7.75196C16.4022 8.07208 16.1781 8.42422 16.05 8.77636H16.9464L17.1385 7.43183C16.9784 7.52787 16.8504 7.65592 16.7223 7.75196ZM18.9632 7.91202L19.0913 7.07969L19.1553 6.72755H19.1233C18.9952 6.75956 18.8672 6.79157 18.7071 6.82359C18.547 6.8556 18.387 6.91962 18.2269 6.95164C18.0989 6.98365 17.9708 7.04768 17.8428 7.07969L17.7787 7.55988L17.6187 8.77636H17.7147H17.8428L18.1309 8.55227L18.6431 8.16812L18.9632 7.91202ZM10.864 8.1041L10.7679 8.3602L11.024 8.77636H14.8336L13.553 6.56748L10.864 8.1041ZM20.0836 7.88001L20.8199 7.97604C20.948 7.65592 21.076 7.33579 21.1721 7.04768L20.0836 7.88001ZM7.11848 6.43943L6.38219 8.77636H6.83037H7.82276H9.13528H9.83957L9.9356 8.45624L10.0637 8.07208L10.2237 7.59189L10.2557 7.49585V7.39982L10.1277 7.3678L8.11088 6.75956L7.11848 6.43943ZM22.4526 25.1029L26.4862 22.1257C26.5502 22.0617 26.6463 21.9976 26.7423 21.9336C26.7743 21.9016 26.7743 21.9016 26.8063 21.8696C27.0304 21.7095 27.2545 21.5174 27.4466 21.2934C28.0868 20.5891 28.439 19.6607 28.439 18.7003C28.439 16.5555 26.6783 14.7948 24.5334 14.7948C24.0212 14.7948 23.381 14.9228 22.8367 15.1469C23.381 17.804 23.573 21.3894 22.4526 25.1029ZM27.7347 23.1821C28.0548 22.958 28.375 22.6699 28.6311 22.3818C29.5274 21.3574 30.0396 20.0769 30.0396 18.7003C30.0396 15.6591 27.5746 13.1941 24.5334 13.1941C23.7971 13.1941 23.0928 13.3222 22.6447 13.4822L22.7407 14.1545C23.3169 13.9624 23.9892 13.8344 24.5334 13.8344C27.2225 13.8344 29.3994 16.0112 29.3994 18.7003C29.3994 19.9168 28.9512 21.0693 28.1509 21.9336C27.9268 22.1897 27.7027 22.3818 27.4466 22.5739C27.4146 22.6059 27.3826 22.6379 27.3185 22.6699C27.2225 22.7339 27.1265 22.798 27.0304 22.862L21.8444 26.7035C21.6843 27.0557 21.5242 27.4398 21.3642 27.7919C23.7331 26.0953 27.5426 23.3102 27.7347 23.1821ZM2.60468 12.842L4.30136 11.5295C4.33337 11.4654 4.33337 11.4014 4.36538 11.3374C4.07727 11.2093 3.82117 10.9532 3.69311 10.6651L1.93241 10.441C1.9004 11.2734 2.12449 12.1057 2.60468 12.842ZM2.02845 9.6087L3.59708 9.80077C3.69312 9.38461 3.98123 9.03247 4.36538 8.8724L3.24494 7.43183C2.66871 8.04007 2.22053 8.77636 2.02845 9.6087ZM3.9172 6.95164L5.32576 8.77636H5.54986L6.28615 6.27937C5.45382 6.27937 4.62149 6.50346 3.9172 6.95164Z" fill="black"/>
</g>
</g>
</svg>
