<svg id="Livello_1" data-name="Livello 1" xmlns="http://www.w3.org/2000/svg" viewBox="0 0 336.152 384">
  <path d="M1638,1692.75H1363.5c-2.11-.655-4.237-1.259-6.327-1.974-15.178-5.2-24.416-18.685-24.418-35.746q-.015-165.416-.1-330.833c-.009-7.34,2.239-12.546,9.1-15.447h318c5.834,2.654,9.059,6.791,9.055,13.591q-.117,166.536-.056,333.073c0,.749-.007,1.5-.027,2.248a35.945,35.945,0,0,1-23.7,32.856C1642.716,1691.355,1640.343,1692.011,1638,1692.75Zm-281.25-359.82v3.211q0,123.933.022,247.867c.013,21.032,15.73,36.7,36.806,36.721q107.247.079,214.493-.034a38.96,38.96,0,0,0,9.982-1.279c16.471-4.433,26.686-18.4,26.69-36.3q.024-123.183.007-246.367v-3.818ZM1644.7,1632.776a61.172,61.172,0,0,1-36.726,11.978q-107.205-.015-214.41-.129a66.68,66.68,0,0,1-18.737-2.916c-6.2-1.865-11.962-5.209-18.075-7.978,0,6.626,0,13.467,0,20.308,0,10.465,4.281,14.71,14.831,14.71h258.267c1.249,0,2.5.053,3.747-.044,5.831-.455,10.819-5.045,11.03-10.855C1644.917,1649.761,1644.7,1641.653,1644.7,1632.776Z" transform="translate(-1332.652 -1308.75)"/>
</svg>
