<svg id="Livello_1" data-name="Livello 1" xmlns="http://www.w3.org/2000/svg" viewBox="0 0 384 384">
  <path d="M1692.75,1329.75c-1.1,5.6-1.816,11.306-3.358,16.78-10.1,35.867-32.976,60.164-67.756,72.989-16.258,6-25.842,16.627-29.123,33.787-7.133,37.3-29.254,61.692-65.224,73.6-7.946,2.63-14.376,12.1-14.5,22.116-.134,11.118-.04,22.239-.041,33.358q0,30.361,0,60.721c.014,15.494,10.085,25.618,25.5,25.646,12.869.024,25.738,0,38.607.007,7.435.005,12.358,3.5,13.666,9.668,1.225,5.78-1.734,10.711-8.274,13.815-.2.1-.34.34-.508.515h-162c-.632-.358-1.251-.739-1.9-1.07-5.429-2.782-8.132-8.191-6.8-13.626a11.951,11.951,0,0,1,12.064-9.284c13.244-.06,26.488-.009,39.732-.023,15.94-.016,25.889-10,25.895-26.014q.019-46.291.006-92.583c0-8.38-3.079-15.344-9.663-20.576a17.608,17.608,0,0,0-5.249-2.716c-36.322-12.332-58.227-37.211-65.229-74.991-2.87-15.486-11.586-26.1-26.317-31.335-31.263-11.106-53.985-31.317-66.265-62.308-3.269-8.248-4.448-17.324-6.593-26.019-.2-.825-.456-1.637-.686-2.455v-12a16.078,16.078,0,0,1,9-9h366a16.383,16.383,0,0,1,9,9Zm-24.891,3.156h-334.64c1.806,5.932,3.077,11.674,5.27,17.039,9.818,24.026,27.742,39.276,51.913,48.055,23.742,8.624,37.789,25.827,42.01,50.7a69.25,69.25,0,0,0,136.643.194c4.16-24.908,18.281-41.8,41.813-50.942a118.112,118.112,0,0,0,15.732-6.923C1649.2,1378.184,1662.954,1358.918,1667.859,1332.906Z" transform="translate(-1308.75 -1308.75)"/>
</svg>
