<svg width="160" height="310" viewBox="0 0 160 310" fill="none" xmlns="http://www.w3.org/2000/svg">
<path fill-rule="evenodd" clip-rule="evenodd" d="M76.9985 298.895C76.9985 298.895 46.2242 299.553 29.3052 291.542C29.1129 291.45 28.9207 291.389 28.7285 291.343C28.7285 291.343 26.1701 290.424 26.4363 286.135C26.9095 278.874 28.3883 240.765 24.5434 204.798C20.7281 169.107 12.7866 132.526 11.1451 101.693C9.50363 70.9956 16.2915 15.0379 16.2915 15.0379C16.3063 14.9 16.3211 14.7621 16.3063 14.6243C16.3063 14.6243 16.3359 13.3529 17.2675 12.3573C18.0809 11.5148 19.4858 11.0093 21.7484 11.1165C30.3402 11.4994 69.1464 11.1165 69.1464 11.1165C70.7731 11.1012 72.0745 9.72255 72.0597 8.03757C72.0449 6.35259 70.714 5.00462 69.0872 5.01995C69.0872 5.01995 30.548 5.4029 21.9997 5.01995C17.4007 4.8055 14.7238 6.35259 13.0822 8.08353C10.7901 10.4731 10.4647 13.4907 10.4352 14.4099C10.0654 17.4275 3.64724 71.8229 5.25923 102.029C6.91551 132.956 14.8717 169.658 18.687 205.456C22.4876 240.963 21.0236 278.57 20.5651 285.738C20.3137 289.583 21.3341 292.126 22.5467 293.811C24.1587 296.093 26.2438 296.936 27.0719 297.196C44.951 305.529 77.101 304.993 77.101 304.993C78.7277 304.962 80.0291 303.568 79.9995 301.883C79.9699 300.199 78.6252 298.849 76.9985 298.895Z" fill="black"/>
<path fill-rule="evenodd" clip-rule="evenodd" d="M81.8523 304.993C81.8523 304.993 114.468 305.529 132.607 297.196C133.447 296.936 135.562 296.093 137.197 293.811C138.428 292.126 139.463 289.583 139.208 285.738C138.743 278.57 137.257 240.964 141.113 205.456C144.984 169.658 153.055 132.957 154.735 102.029C156.371 71.8225 149.86 17.4294 149.484 14.4099C149.454 13.4908 149.124 10.4732 146.799 8.08353C145.134 6.3526 142.418 4.80549 137.752 5.01995C129.081 5.4029 74.6657 5.01995 74.6657 5.01995C73.0154 5.00464 71.6652 6.36793 71.6652 8.03758C71.6502 9.72256 72.9704 11.1012 74.6207 11.1165C74.6207 11.1165 129.289 11.4994 138.007 11.1165C140.302 11.0093 141.728 11.5147 142.553 12.3573C143.498 13.3529 143.528 14.6243 143.528 14.6243C143.513 14.7621 143.528 14.9 143.543 15.0379C143.543 15.0379 150.429 70.996 148.764 101.693C147.099 132.528 139.042 169.105 135.171 204.798C131.271 240.764 132.771 278.876 133.251 286.135C133.521 290.424 130.926 291.343 130.926 291.343C130.731 291.389 130.536 291.45 130.341 291.542C113.177 299.553 81.956 298.895 81.956 298.895C80.3057 298.849 78.9404 300.197 78.9104 301.882C78.8804 303.567 80.202 304.962 81.8523 304.993Z" fill="black"/>
<path fill-rule="evenodd" clip-rule="evenodd" d="M76.9985 298.895C76.9985 298.895 46.2242 299.553 29.3052 291.542C29.1129 291.45 28.9207 291.389 28.7285 291.343C28.7285 291.343 26.1701 290.424 26.4363 286.135C26.9095 278.874 28.3883 240.765 24.5434 204.798C20.7281 169.107 12.7866 132.526 11.1451 101.693C9.50363 70.9956 16.2915 15.0379 16.2915 15.0379C16.3063 14.9 16.3211 14.7621 16.3063 14.6243C16.3063 14.6243 16.3359 13.3529 17.2675 12.3573C18.0809 11.5148 19.4858 11.0093 21.7484 11.1165C30.3402 11.4994 69.1464 11.1165 69.1464 11.1165C70.7731 11.1012 72.0745 9.72255 72.0597 8.03757C72.0449 6.35259 70.714 5.00462 69.0872 5.01995C69.0872 5.01995 30.548 5.4029 21.9997 5.01995C17.4007 4.8055 14.7238 6.35259 13.0822 8.08353C10.7901 10.4731 10.4647 13.4907 10.4352 14.4099C10.0654 17.4275 3.64724 71.8229 5.25923 102.029C6.91551 132.956 14.8717 169.658 18.687 205.456C22.4876 240.963 21.0236 278.57 20.5651 285.738C20.3137 289.583 21.3341 292.126 22.5467 293.811C24.1587 296.093 26.2438 296.936 27.0719 297.196C44.951 305.529 77.101 304.993 77.101 304.993C78.7277 304.962 80.0291 303.568 79.9995 301.883C79.9699 300.199 78.6252 298.849 76.9985 298.895Z" stroke="black" stroke-width="10"/>
<path fill-rule="evenodd" clip-rule="evenodd" d="M81.8523 304.993C81.8523 304.993 114.468 305.529 132.607 297.196C133.447 296.936 135.562 296.093 137.197 293.811C138.428 292.126 139.463 289.583 139.208 285.738C138.743 278.57 137.257 240.964 141.113 205.456C144.984 169.658 153.055 132.957 154.735 102.029C156.371 71.8225 149.86 17.4294 149.484 14.4099C149.454 13.4908 149.124 10.4732 146.799 8.08353C145.134 6.3526 142.418 4.80549 137.752 5.01995C129.081 5.4029 74.6657 5.01995 74.6657 5.01995C73.0154 5.00464 71.6652 6.36793 71.6652 8.03758C71.6502 9.72256 72.9704 11.1012 74.6207 11.1165C74.6207 11.1165 129.289 11.4994 138.007 11.1165C140.302 11.0093 141.728 11.5147 142.553 12.3573C143.498 13.3529 143.528 14.6243 143.528 14.6243C143.513 14.7621 143.528 14.9 143.543 15.0379C143.543 15.0379 150.429 70.996 148.764 101.693C147.099 132.528 139.042 169.105 135.171 204.798C131.271 240.764 132.771 278.876 133.251 286.135C133.521 290.424 130.926 291.343 130.926 291.343C130.731 291.389 130.536 291.45 130.341 291.542C113.177 299.553 81.956 298.895 81.956 298.895C80.3057 298.849 78.9404 300.197 78.9104 301.882C78.8804 303.567 80.202 304.962 81.8523 304.993Z" stroke="black" stroke-width="10"/>
</svg>
