<svg width="32" height="32" viewBox="0 0 32 32" fill="none" xmlns="http://www.w3.org/2000/svg">
<g id="Group 5">
<path id="Vector" d="M13.8622 21.716L25.5916 7.46678H0L11.7284 21.716V29.8667H7.46065V32H18.1299V29.8667H13.8622V21.716ZM21.0719 9.60011L12.7967 19.6547L4.52002 9.60011H21.0719ZM32 8.53344C31.9973 10.7961 31.0971 12.9639 29.4967 14.5641C27.8977 16.1641 25.7278 17.0641 23.4646 17.0667C22.7457 17.0654 22.0282 16.9761 21.3307 16.8001L22.8458 14.9014C23.0511 14.9227 23.2578 14.9334 23.4646 14.9334C24.9703 14.9347 26.428 14.4054 27.5817 13.4401C28.7367 12.4734 29.5128 11.1308 29.7756 9.6496C30.037 8.16692 29.7689 6.64028 29.0167 5.33619C28.2646 4.0322 27.0776 3.03486 25.6626 2.5202C24.2489 2.00554 22.6979 2.00421 21.2829 2.51887C19.8679 3.03353 18.6809 4.02954 17.9274 5.33353H15.5588C16.5564 2.86686 18.6476 1.00681 21.2147 0.302979C23.782 -0.399686 26.5292 0.134979 28.646 1.74965C30.7612 3.36432 32.0013 5.87208 32 8.53344Z" fill="black"/>
</g>
</svg>
