<svg id="Livello_1" data-name="Livello 1" xmlns="http://www.w3.org/2000/svg" viewBox="0 0 238.763 384">
  <g>
    <path d="M1401.529,1692.75a20,20,0,0,1-20-20.051c.09-36.44.34-72.882-.155-109.315-.593-43.677,7.451-85.387,25.248-125.267,4.219-9.455,7.9-19.15,12.058-28.632a6.107,6.107,0,0,0-.739-6.8c-4.937-7.063-9.607-14.312-14.4-21.473-9.066-13.535-13.954-28.376-13.945-44.729q0-3.9.023-7.8a20.014,20.014,0,0,1,20-19.933h126.443a19.986,19.986,0,0,1,20,20.235c-.05,3.617-.125,7.233-.248,10.847-.515,15.108-5.439,28.822-13.819,41.345-4.929,7.366-9.758,14.8-14.8,22.086a5.282,5.282,0,0,0-.524,5.76c7.779,19.042,15.9,37.966,22.95,57.278,8.483,23.232,12.47,47.49,13.993,72.151.068,1.1.15,2.2.256,3.727H1620c0,31.6-.335,67.688.1,99.287.388,28.275-20.531,48.149-42.219,50.745a5.9,5.9,0,0,0-1.381.539ZM1440.26,1416c-4.391,10.529-8.537,20.951-13.018,31.214A277.572,277.572,0,0,0,1403.9,1562.27c.5,34.483.1,68.979.1,103.469v4.172h82.571c-5.994-9.6-7.758-19.711-7.69-30.459.2-30.863.069-66.545.069-97.409h62.277a257.249,257.249,0,0,0-8.449-54.374c-6.47-24.212-17.448-46.7-26.873-69.779-.4-.982-2.479-1.8-3.785-1.809-12.744-.134-25.49-.081-38.235-.081Zm61.19,148.863v3.7q0,36.908.012,73.815c.028,16.989,11.813,28.3,29.142,27.858,12.576-.318,25.155-.146,37.734.012,17.742.222,29.146-10.965,29.158-28.544q.024-36.345,0-72.691v-4.146Zm31.987-233.393h-121.2c-.875,12.395,1.592,23.806,8.122,34.147,5.531,8.759,11.357,17.333,17.2,25.886a4.988,4.988,0,0,0,3.523,1.913q31.668.172,63.336.013a4.622,4.622,0,0,0,3.338-1.624c6.169-9.089,12.445-18.124,18.158-27.5C1531.984,1354.353,1534.007,1343.283,1533.437,1331.47Z" transform="translate(-1381.342 -1308.75)"/>
    <rect x="49.182" y="193.679" width="21.917" height="31.67" rx="10.959"/>
    <rect x="49.189" y="249.801" width="21.957" height="31.546" rx="10.959"/>
    <rect x="49.085" y="306.041" width="22.096" height="31.415" rx="10.959"/>
  </g>
</svg>
