<svg width="160" height="310" viewBox="0 0 160 310" fill="none" xmlns="http://www.w3.org/2000/svg">
<path d="M131.502 305H28.5219C27.3251 305.005 26.17 304.569 25.2848 303.779C24.3996 302.99 23.8487 301.903 23.741 300.734C22.9761 292.602 5 101.188 5 58.6251C5 24.4533 11.3108 8.58608 11.5737 7.92983C11.9332 7.05831 12.5518 6.31292 13.3489 5.79047C14.1461 5.26803 15.085 4.99266 16.0438 5.00015H143.98C144.938 4.99924 145.873 5.28025 146.666 5.80678C147.459 6.3333 148.072 7.08109 148.426 7.95327C148.689 8.60952 155 24.4767 155 58.6485C155 101.211 137.024 292.625 136.259 300.758C136.146 301.918 135.596 302.996 134.717 303.78C133.837 304.564 132.691 304.999 131.502 305ZM32.8964 295.625H127.127C129.829 266.516 145.438 97.297 145.438 58.6251C145.438 34.6251 142.163 20.1876 140.49 14.3751H19.5339C17.8606 20.1642 14.5857 34.6017 14.5857 58.6251C14.5857 97.297 30.1713 266.516 32.8964 295.625Z" fill="black" stroke="black" stroke-width="10"/>
</svg>
