<svg width="16" height="30" viewBox="0 0 16 30" fill="none" xmlns="http://www.w3.org/2000/svg">
<g id="Group">
<path id="Vector" d="M7.65494 8.87636C6.82784 8.28386 6.24824 7.20863 6.0612 6H2V24H14V6H11.723C10.2516 7.91231 8.46444 9.45624 7.65494 8.87636ZM15.5 4C15.7761 4 16 4.22386 16 4.5V27C16 28.6569 14.6569 30 13 30H3C1.34315 30 0 28.6569 0 27V4.5C0 4.22386 0.223858 4 0.5 4H6.12008C6.26445 3.34128 6.53908 2.69735 6.96513 2.11917C8.63337 -0.144756 11.9914 -0.543292 13.6962 0.677941C14.3175 1.12305 13.9099 2.49504 13.0582 4H15.5ZM2 26V27C2 27.5523 2.44772 28 3 28H13C13.5523 28 14 27.5523 14 27V26H2ZM8.21239 3.01265C7.35763 4.17262 7.54004 6.17134 8.47562 7.14427C8.54647 7.09673 8.62854 7.03709 8.71937 6.96532C8.90915 6.81535 9.33263 6.4134 9.9898 5.75946L9.67486 4.24261C9.6464 4.10553 9.73603 3.97166 9.87506 3.9436C9.87722 3.94316 9.87938 3.94276 9.88155 3.94238L11.406 3.67476C11.8686 2.8784 12.1271 2.40902 12.1817 2.26661C12.2229 2.15927 12.2551 2.06387 12.279 1.98275C11.0514 1.40609 9.06714 1.85268 8.21239 3.01265Z" fill="black"/>
</g>
</svg>
