<svg width="171" height="310" viewBox="0 0 171 310" fill="none" xmlns="http://www.w3.org/2000/svg">
<path fill-rule="evenodd" clip-rule="evenodd" d="M21.1671 294.724C21.7651 294.417 22.3326 294.279 22.3326 294.279C22.3786 294.264 22.4093 294.248 22.4553 294.233C22.4553 294.233 49.0161 286.458 60.809 281.029C73.614 275.14 73.5222 268.408 73.338 266.982C73.3687 264.666 73.338 250.466 67.7558 238.397C65.2102 232.892 59.5669 228.153 52.4972 224.074C42.7744 218.446 30.3376 213.937 21.0137 209.49C7.64138 203.126 11.5209 186.517 11.5209 186.517C11.5363 186.425 11.5516 186.333 11.5669 186.241C11.5669 186.241 31.3345 34.373 31.8864 26.6312C32.2851 21.1412 35.7203 19.362 35.8735 19.2855C58.984 9.99217 84.2716 11.1578 84.2716 11.1578C85.9586 11.2344 87.3847 9.93092 87.4614 8.24402C87.5381 6.57246 86.2346 5.13092 84.5477 5.05425C84.5477 5.05425 57.9099 3.82742 33.5742 13.6268C33.5589 13.6268 33.5589 13.6421 33.5435 13.6421C33.5435 13.6421 26.5198 16.2951 25.799 26.1864C25.2469 33.8081 6.06245 181.195 5.52539 185.369C5.12668 187.454 1.84489 207.13 18.3916 215.012C27.5774 219.398 39.8614 223.815 49.4461 229.351C55.2736 232.724 60.1197 236.42 62.2204 240.959C67.7257 252.875 67.2349 267.122 67.2349 267.122L70.2867 270.265L67.2503 267.536C67.2503 267.536 66.4988 271.692 58.2635 275.479C46.716 280.786 20.7377 288.377 20.7377 288.377L20.8758 288.346C20.8758 288.346 18.5601 288.929 16.9346 290.171C15.8764 290.984 15.0943 292.042 14.7876 293.238C14.3735 294.802 14.5269 296.949 17.1186 299.296C18.6981 300.737 22.3478 302.071 28.0066 302.899C39.2628 304.556 59.4595 305 86.082 305C87.7689 305 89.1337 303.635 89.1337 301.949C89.1337 300.262 87.7688 298.897 86.082 298.897C59.8736 298.897 39.9844 298.483 28.8978 296.857C26.6895 296.535 24.8337 296.167 23.4078 295.722C22.411 295.431 21.6596 295.17 21.2302 294.787L21.1671 294.724Z" fill="black"/>
<path fill-rule="evenodd" clip-rule="evenodd" d="M149.343 294.782C148.914 295.165 148.162 295.426 147.166 295.717C145.739 296.162 143.884 296.53 141.676 296.852C130.588 298.477 110.698 298.891 84.4914 298.891C82.8045 298.891 81.4397 300.256 81.4397 301.943C81.4397 303.63 82.8046 304.995 84.4914 304.995C111.114 304.995 131.311 304.55 142.567 302.894C148.226 302.066 151.875 300.732 153.455 299.29C156.047 296.944 156.2 294.797 155.786 293.232C155.479 292.036 154.697 290.978 153.639 290.165C152.013 288.923 149.698 288.341 149.698 288.341L149.836 288.371C149.836 288.371 123.857 280.78 112.31 275.474C104.213 271.747 103.354 267.683 103.323 267.53C103.338 267.392 103.354 267.254 103.338 267.116C103.338 267.116 102.848 252.87 108.353 240.954C110.454 236.415 115.3 232.719 121.127 229.345C130.712 223.809 142.996 219.392 152.182 215.007C168.729 207.124 165.447 187.434 165.048 185.348C164.511 181.192 145.327 33.8015 144.774 26.1814C144.054 16.2902 137.03 13.6371 137.03 13.6371C137.015 13.6371 137.015 13.6217 136.999 13.6217C112.662 3.82236 86.0257 5.0492 86.0257 5.0492C84.3388 5.12587 83.0353 6.56741 83.112 8.23896C83.1887 9.92587 84.6149 11.2294 86.3018 11.1527C86.3018 11.1527 111.59 9.98719 134.7 19.2804C134.792 19.3264 138.273 21.09 138.687 26.6261C139.239 34.3707 159.006 186.236 159.006 186.236C159.022 186.328 159.037 186.42 159.052 186.512C159.052 186.512 162.932 203.121 149.56 209.485C140.236 213.932 127.799 218.441 118.076 224.069C111.007 228.148 105.363 232.887 102.818 238.392C97.2354 250.461 97.2048 264.677 97.2354 266.993C97.0514 268.403 96.9593 275.136 109.764 281.024C121.557 286.453 148.118 294.228 148.118 294.228C148.164 294.244 148.195 294.259 148.241 294.274L149.343 294.782Z" fill="black"/>
<path fill-rule="evenodd" clip-rule="evenodd" d="M21.1671 294.724C21.7651 294.417 22.3326 294.279 22.3326 294.279C22.3786 294.264 22.4093 294.248 22.4553 294.233C22.4553 294.233 49.0161 286.458 60.809 281.029C73.614 275.14 73.5222 268.408 73.338 266.982C73.3687 264.666 73.338 250.466 67.7558 238.397C65.2102 232.892 59.5669 228.153 52.4972 224.074C42.7744 218.446 30.3376 213.937 21.0137 209.49C7.64138 203.126 11.5209 186.517 11.5209 186.517C11.5363 186.425 11.5516 186.333 11.5669 186.241C11.5669 186.241 31.3345 34.373 31.8864 26.6312C32.2851 21.1412 35.7203 19.362 35.8735 19.2855C58.984 9.99217 84.2716 11.1578 84.2716 11.1578C85.9586 11.2344 87.3847 9.93092 87.4614 8.24402C87.5381 6.57246 86.2346 5.13092 84.5477 5.05425C84.5477 5.05425 57.9099 3.82742 33.5742 13.6268C33.5589 13.6268 33.5589 13.6421 33.5435 13.6421C33.5435 13.6421 26.5198 16.2951 25.799 26.1864C25.2469 33.8081 6.06245 181.195 5.52539 185.369C5.12668 187.454 1.84489 207.13 18.3916 215.012C27.5774 219.398 39.8614 223.815 49.4461 229.351C55.2736 232.724 60.1197 236.42 62.2204 240.959C67.7257 252.875 67.2349 267.122 67.2349 267.122L70.2867 270.265L67.2503 267.536C67.2503 267.536 66.4988 271.692 58.2635 275.479C46.716 280.786 20.7377 288.377 20.7377 288.377L20.8758 288.346C20.8758 288.346 18.5601 288.929 16.9346 290.171C15.8764 290.984 15.0943 292.042 14.7876 293.238C14.3735 294.802 14.5269 296.949 17.1186 299.296C18.6981 300.737 22.3478 302.071 28.0066 302.899C39.2628 304.556 59.4595 305 86.082 305C87.7689 305 89.1337 303.635 89.1337 301.949C89.1337 300.262 87.7688 298.897 86.082 298.897C59.8736 298.897 39.9844 298.483 28.8978 296.857C26.6895 296.535 24.8337 296.167 23.4078 295.722C22.411 295.431 21.6596 295.17 21.2302 294.787L21.1671 294.724Z" stroke="black" stroke-width="10"/>
<path fill-rule="evenodd" clip-rule="evenodd" d="M149.343 294.782C148.914 295.165 148.162 295.426 147.166 295.717C145.739 296.162 143.884 296.53 141.676 296.852C130.588 298.477 110.698 298.891 84.4914 298.891C82.8045 298.891 81.4397 300.256 81.4397 301.943C81.4397 303.63 82.8046 304.995 84.4914 304.995C111.114 304.995 131.311 304.55 142.567 302.894C148.226 302.066 151.875 300.732 153.455 299.29C156.047 296.944 156.2 294.797 155.786 293.232C155.479 292.036 154.697 290.978 153.639 290.165C152.013 288.923 149.698 288.341 149.698 288.341L149.836 288.371C149.836 288.371 123.857 280.78 112.31 275.474C104.213 271.747 103.354 267.683 103.323 267.53C103.338 267.392 103.354 267.254 103.338 267.116C103.338 267.116 102.848 252.87 108.353 240.954C110.454 236.415 115.3 232.719 121.127 229.345C130.712 223.809 142.996 219.392 152.182 215.007C168.729 207.124 165.447 187.434 165.048 185.348C164.511 181.192 145.327 33.8015 144.774 26.1814C144.054 16.2902 137.03 13.6371 137.03 13.6371C137.015 13.6371 137.015 13.6217 136.999 13.6217C112.662 3.82236 86.0257 5.0492 86.0257 5.0492C84.3388 5.12587 83.0353 6.56741 83.112 8.23896C83.1887 9.92587 84.6149 11.2294 86.3018 11.1527C86.3018 11.1527 111.59 9.98719 134.7 19.2804C134.792 19.3264 138.273 21.09 138.687 26.6261C139.239 34.3707 159.006 186.236 159.006 186.236C159.022 186.328 159.037 186.42 159.052 186.512C159.052 186.512 162.932 203.121 149.56 209.485C140.236 213.932 127.799 218.441 118.076 224.069C111.007 228.148 105.363 232.887 102.818 238.392C97.2354 250.461 97.2048 264.677 97.2354 266.993C97.0514 268.403 96.9593 275.136 109.764 281.024C121.557 286.453 148.118 294.228 148.118 294.228C148.164 294.244 148.195 294.259 148.241 294.274L149.343 294.782Z" stroke="black" stroke-width="10"/>
</svg>
