<svg id="Livello_1" data-name="Livello 1" xmlns="http://www.w3.org/2000/svg" viewBox="0 0 143.74 384">
  <path d="M1449.75,1692.75c-.85-.478-1.7-.961-2.552-1.433a11.935,11.935,0,0,1,5.166-22.528c4.118-.138,8.245.012,12.366-.053,13.372-.21,23.9-10.455,23.97-23.753q.208-37.85-.008-75.7c-.046-8.392-3.558-15.549-10.656-20.013-18.551-11.669-29.727-28.794-37.276-48.75-10.62-28.072-13.228-57.258-11.642-86.951,1.511-28.307,3.276-56.6,4.949-84.9.177-2.991.454-5.978.737-8.961.536-5.637,4.242-8.711,8.946-10.958h114c7.141,2.9,9.047,8.622,9.376,15.816,1.714,37.542,4.52,75.054,5.273,112.611a164.425,164.425,0,0,1-16.37,74.342c-7.324,15.4-17.6,28.283-32.268,37.518-7.216,4.542-10.911,11.681-10.956,20.239q-.2,37.848-.011,75.7a23.861,23.861,0,0,0,23.586,23.751c3.87.087,7.744-.007,11.616.031,6.438.064,11.3,3.833,12.537,9.666,1.176,5.557-1.767,10.816-7.572,13.558a10.971,10.971,0,0,0-1.211.769Zm8.229-359.854c-.207,1.951-.48,3.781-.585,5.622-1.485,25.941-3.081,51.877-4.376,77.828-1.14,22.836.3,45.462,7.284,67.428,4.541,14.284,10.549,27.826,21.726,38.346,12.338,11.613,26.045,11.407,38.166-.444,6.526-6.38,11.167-14.076,14.964-22.269,10.066-21.718,13.975-44.786,13.462-68.494-.521-24.1-1.979-48.176-3.156-72.256-.419-8.566-1.218-17.114-1.85-25.761Z" transform="translate(-1428.691 -1308.75)"/>
</svg>
