<svg width="22" height="35" viewBox="0 0 22 35" fill="none" xmlns="http://www.w3.org/2000/svg">
<path id="Vector" d="M19.2961 2.73439C18.1738 1.61954 16.6356 1 15.0128 1C13.3918 1 11.8942 1.61954 10.7295 2.73439C10.6873 2.77633 10.6467 2.85862 10.6467 2.9409C10.6467 3.02318 10.6889 3.10547 10.7295 3.14741L13.8481 6.24512C12.9353 6.08056 11.4377 5.95633 8.94274 5.95633C4.2436 5.95633 2.99615 6.45163 2.7055 6.82435C1.79103 8.02147 1.20789 9.42675 1.04223 10.9546V11.0369C1 11.3677 1 11.6564 1 11.9872C1 15.3737 2.99625 18.3069 5.8243 19.5861C5.8243 19.628 5.86653 19.628 5.86653 19.628C8.07069 21.1156 8.07069 21.7754 8.07069 22.7257V29.2099C8.07069 29.9117 7.90501 30.4489 7.65487 30.82H7.48919C6.53248 30.9023 3.37328 31.1911 3.37328 32.3899C3.37328 33.5047 6.24175 34 8.90405 34C11.5646 34 14.4348 33.5047 14.4348 32.3899C14.4348 31.1927 11.274 30.862 10.2767 30.82H10.1516C9.90145 30.407 9.73577 29.8697 9.73577 29.2099L9.73253 22.7257C9.73253 21.7754 9.73253 21.1156 11.9367 19.628C14.8474 18.389 16.8841 15.4556 16.8841 11.987C16.8841 11.6563 16.8418 11.3675 16.8418 11.0367V10.9544C16.759 10.1704 16.5511 9.38461 16.2181 8.64083L18.8381 11.2432C18.8803 11.2852 18.9632 11.3255 19.046 11.3255C19.1288 11.3255 19.2117 11.2836 19.2539 11.2432C20.3763 10.1284 21 8.60051 21 6.98863C21.0016 5.37848 20.4202 3.89128 19.2961 2.73439ZM8.94315 9.54935C8.27718 9.54935 3.57996 9.59129 1.74912 10.3334C1.95703 9.30087 2.37284 8.31026 2.99657 7.44224C3.62029 7.77299 5.20072 8.06179 8.94315 8.06179C12.6856 8.06179 14.266 7.77299 14.8897 7.44224C15.5135 8.31026 15.9293 9.30087 16.1372 10.3334C14.3066 9.59127 9.60929 9.54935 8.94315 9.54935ZM16.2199 10.9949C15.7619 11.366 13.0591 11.863 8.94315 11.863C4.82724 11.863 2.1246 11.3677 1.66637 10.9949C2.12443 10.6239 4.82724 10.1269 8.94315 10.1269C13.0591 10.1285 15.7617 10.6642 16.2199 10.9949ZM8.94315 6.57596C11.7288 6.57596 13.6826 6.82442 14.3912 7.03095C13.6846 7.23746 11.7306 7.48594 8.94315 7.48594C6.15752 7.48594 4.20368 7.23748 3.49513 7.03095C4.20331 6.78249 6.15731 6.57596 8.94315 6.57596ZM9.15106 22.7262V29.2103C9.15106 31.7304 11.1473 32.5145 11.2301 32.5565H11.3552C11.4803 32.5565 11.6054 32.4742 11.646 32.35C11.6882 32.1854 11.646 32.0192 11.4803 31.9369C11.4803 31.9369 11.1067 31.8127 10.7315 31.4416C12.9762 31.6482 13.8923 32.1854 13.8923 32.3919C13.8923 32.6807 12.2291 33.4245 8.94497 33.4245C5.70127 33.4245 3.99759 32.7227 3.99759 32.3919C3.99759 32.1854 4.91205 31.6482 7.15845 31.4416C6.78162 31.8127 6.44866 31.9773 6.40641 31.9773C6.24073 32.0192 6.15627 32.2258 6.24073 32.3903C6.28296 32.5146 6.40641 32.5968 6.53148 32.5968H6.65655C6.73939 32.5549 8.73563 31.7708 8.73563 29.2506V22.726C8.73563 21.8177 8.65279 21.1159 7.53043 20.0833C7.98849 20.1656 8.48714 20.2076 8.98578 20.2076H9.02801H9.07024C9.52831 20.2076 9.98471 20.1656 10.4005 20.0833C9.23428 21.0739 9.15106 21.7759 9.15106 22.7262ZM8.98538 19.6285H8.94315H8.90092C4.86784 19.6285 1.58173 16.2 1.58173 11.9875V11.6567C3.28724 12.4828 8.2772 12.4828 8.94126 12.4828C9.60723 12.4828 14.5972 12.4408 16.3008 11.6567V11.9875C16.3024 16.1999 13.0181 19.6285 8.98492 19.6285H8.98538ZM19.0885 10.5823L15.8042 7.32007H18.3819C18.5476 7.32007 18.6727 7.19584 18.6727 7.03127C18.6727 6.86671 18.5476 6.74248 18.3819 6.74248H15.8042L17.7176 4.84189C17.8427 4.71766 17.8427 4.51114 17.7176 4.42886C17.5925 4.34657 17.3846 4.30463 17.3018 4.42886L15.3884 6.32945V3.76901C15.3884 3.60444 15.2633 3.48021 15.0976 3.48021C14.9319 3.48021 14.8069 3.60444 14.8069 3.76901V6.32945L11.4381 2.98326C12.4354 2.11524 13.6828 1.61994 15.0554 1.61994C16.5107 1.61994 17.8833 2.19752 18.8805 3.18977C19.9201 4.22234 20.461 5.5437 20.461 6.9893C20.461 8.31066 19.9623 9.59172 19.0885 10.5823Z" fill="black" stroke="black" stroke-width="0.7"/>
</svg>
