<svg width="111" height="310" viewBox="0 0 111 310" fill="none" xmlns="http://www.w3.org/2000/svg">
<path fill-rule="evenodd" clip-rule="evenodd" d="M54.9501 299.233C54.9501 299.233 36.8604 299.393 23.1268 294.789C22.9386 294.731 22.7505 294.687 22.5624 294.658C22.5624 294.658 20.2614 294.238 20.189 291.43C20.0443 286.073 19.8128 268.771 21.4625 256.739C23.1412 244.447 26.1802 208.41 24.9213 189.126C23.6912 170.043 9.55236 83.4169 10.8546 23.7686C10.8546 23.5948 10.8401 23.4211 10.8112 23.2474C10.8112 23.2474 10.623 20.5254 14.0094 18.4986C19.1035 15.4437 37.0195 10.7673 55.3993 10.7673C56.9912 10.7673 58.2792 9.47872 58.2792 7.88612C58.2792 6.29348 56.9912 5.00492 55.3993 5.00492C35.6887 5.00492 16.5139 10.2752 11.0419 13.5472C4.76118 17.3115 4.93493 22.6107 5.07941 23.885C3.82038 83.7112 17.9306 170.391 19.175 189.505C20.4051 208.457 17.4095 243.887 15.7596 255.962C14.0664 268.312 14.2691 286.077 14.4282 291.579C14.6164 298.601 20.101 300.078 21.5196 300.339C36.0349 305.131 54.993 305.001 54.993 305.001C56.5849 305.001 57.8585 303.698 57.844 302.105C57.844 300.512 56.5415 299.224 54.9496 299.238L54.9501 299.233Z" fill="black"/>
<path fill-rule="evenodd" clip-rule="evenodd" d="M55.8621 304.996C55.8621 304.996 74.8202 305.126 89.3356 300.334C90.7538 300.073 96.2387 298.596 96.4269 291.574C96.5861 286.072 96.7887 268.308 95.0955 255.957C93.4457 243.882 90.4501 208.455 91.6801 189.5C92.9247 170.389 107.035 83.7063 105.776 23.88C105.92 22.6059 106.094 17.307 99.8132 13.5423C94.3572 10.2702 75.1679 5 55.4558 5C53.8639 5 52.576 6.28859 52.576 7.88119C52.576 9.47383 53.864 10.7624 55.4558 10.7624C73.8349 10.7624 91.7513 15.4388 96.8457 18.4937C100.232 20.5207 100.044 23.2425 100.044 23.2425C100.015 23.4162 100.001 23.5899 100.015 23.7637C101.303 83.4157 87.1639 170.04 85.9339 189.121C84.6748 208.406 87.7139 244.444 89.3926 256.734C91.0424 268.766 90.8109 286.068 90.6662 291.425C90.5938 294.233 88.2928 294.653 88.2928 294.653C88.1046 294.682 87.9165 294.726 87.7284 294.784C73.9948 299.388 55.905 299.228 55.905 299.228C54.3131 299.214 53.0107 300.502 53.0107 302.095C52.9962 303.688 54.2697 304.991 55.8616 304.991L55.8621 304.996Z" fill="black"/>
<path fill-rule="evenodd" clip-rule="evenodd" d="M54.9501 299.233C54.9501 299.233 36.8604 299.393 23.1268 294.789C22.9386 294.731 22.7505 294.687 22.5624 294.658C22.5624 294.658 20.2614 294.238 20.189 291.43C20.0443 286.073 19.8128 268.771 21.4625 256.739C23.1412 244.447 26.1802 208.41 24.9213 189.126C23.6912 170.043 9.55236 83.4169 10.8546 23.7686C10.8546 23.5948 10.8401 23.4211 10.8112 23.2474C10.8112 23.2474 10.623 20.5254 14.0094 18.4986C19.1035 15.4437 37.0195 10.7673 55.3993 10.7673C56.9912 10.7673 58.2792 9.47872 58.2792 7.88612C58.2792 6.29348 56.9912 5.00492 55.3993 5.00492C35.6887 5.00492 16.5139 10.2752 11.0419 13.5472C4.76118 17.3115 4.93493 22.6107 5.07941 23.885C3.82038 83.7112 17.9306 170.391 19.175 189.505C20.4051 208.457 17.4095 243.887 15.7596 255.962C14.0664 268.312 14.2691 286.077 14.4282 291.579C14.6164 298.601 20.101 300.078 21.5196 300.339C36.0349 305.131 54.993 305.001 54.993 305.001C56.5849 305.001 57.8585 303.698 57.844 302.105C57.844 300.512 56.5415 299.224 54.9496 299.238L54.9501 299.233Z" stroke="black" stroke-width="10"/>
<path fill-rule="evenodd" clip-rule="evenodd" d="M55.8621 304.996C55.8621 304.996 74.8202 305.126 89.3356 300.334C90.7538 300.073 96.2387 298.596 96.4269 291.574C96.5861 286.072 96.7887 268.308 95.0955 255.957C93.4457 243.882 90.4501 208.455 91.6801 189.5C92.9247 170.389 107.035 83.7063 105.776 23.88C105.92 22.6059 106.094 17.307 99.8132 13.5423C94.3572 10.2702 75.1679 5 55.4558 5C53.8639 5 52.576 6.28859 52.576 7.88119C52.576 9.47383 53.864 10.7624 55.4558 10.7624C73.8349 10.7624 91.7513 15.4388 96.8457 18.4937C100.232 20.5207 100.044 23.2425 100.044 23.2425C100.015 23.4162 100.001 23.5899 100.015 23.7637C101.303 83.4157 87.1639 170.04 85.9339 189.121C84.6748 208.406 87.7139 244.444 89.3926 256.734C91.0424 268.766 90.8109 286.068 90.6662 291.425C90.5938 294.233 88.2928 294.653 88.2928 294.653C88.1046 294.682 87.9165 294.726 87.7284 294.784C73.9948 299.388 55.905 299.228 55.905 299.228C54.3131 299.214 53.0107 300.502 53.0107 302.095C52.9962 303.688 54.2697 304.991 55.8616 304.991L55.8621 304.996Z" stroke="black" stroke-width="10"/>
</svg>
