<svg id="Livello_1" data-name="Livello 1" xmlns="http://www.w3.org/2000/svg" viewBox="0 0 342.048 384">
  <path d="M1338.75,1308.75h234c6.814,2.937,9.321,8.094,9.1,15.472-.375,12.73-.1,25.48-.1,38.222v7.367c1.666-.435,2.846-.763,4.036-1.051,6.785-1.642,13.518-3.551,20.366-4.86,22.454-4.29,39.4,3.732,50.427,23.775a86.4,86.4,0,0,1,5.422,11.9c7.931,21.666,9.8,44.257,9.695,67.081-.084,17.9-3.21,35.269-10.33,51.782-11.39,26.417-29.4,46.107-57.126,55.827-7.409,2.6-14.831,5.157-22.49,7.819v3.988c0,23.484.074,46.969-.031,70.454a35.96,35.96,0,0,1-25.088,34.536c-1.862.607-3.753,1.128-5.631,1.689H1360.5c-2.11-.655-4.237-1.259-6.327-1.974-15.178-5.2-24.416-18.685-24.418-35.746q-.015-165.416-.1-330.833C1329.643,1316.857,1331.891,1311.651,1338.75,1308.75Zm15,24.075v3.991q0,123,.005,245.99c0,22.537,15.369,37.929,37.871,37.939q64.122.027,128.245,0c22.518-.01,37.869-15.375,37.873-37.93q.023-122.994.006-245.99v-4Zm228.131,61.523V1556.69c11.074-3.9,22.273-6.78,31.548-13.841,17.959-13.671,27.849-32.335,32.024-54.152,4.292-22.422,2.421-44.766-1.963-66.958-1.845-9.336-4.616-18.414-10.378-26.235-4.448-6.038-10.353-9.913-17.961-8.541C1603.927,1388.987,1592.857,1391.868,1581.881,1394.348ZM1353.75,1633.017c0,7.273,0,14.09,0,20.906,0,10.528,4.265,14.826,14.711,14.826q87.327,0,174.652,0c1.124,0,2.253.044,3.372-.036,5.419-.386,10.551-4.286,10.9-9.646.548-8.5.146-17.066.146-25.58-.378-.027-.523-.084-.608-.036-.542.305-1.087.609-1.6.957a60.271,60.271,0,0,1-34.6,10.349q-65.025-.03-130.051,0a60.5,60.5,0,0,1-28.469-6.792C1359.475,1636.547,1356.886,1634.865,1353.75,1633.017Z" transform="translate(-1329.652 -1308.75)"/>
</svg>
