<svg id="Livello_1" data-name="Livello 1" xmlns="http://www.w3.org/2000/svg" viewBox="0 0 311.745 384">
  <path d="M1589.275,1692H1410.759c-.18-.163-.336-.419-.544-.474-20.727-5.522-30.209-17.825-30.2-39.146.02-43.842,1.062-87.729-2.394-131.475q-3.447-43.649-9.336-87.1c-4.944-36.248-13.513-71.812-22.891-107.162-2.728-10.283-1.314-13.62,7.61-18.648H1647.03c8.775,4.857,10.3,8.465,7.754,18.308q-1.87,7.245-3.676,14.507c-11.417,45.812-20.6,92.041-25.642,139.024-3.774,35.181-5.163,70.5-5.368,105.858-.135,23.36.006,46.721-.093,70.081a36,36,0,0,1-25.1,34.535C1593.045,1690.919,1591.154,1691.44,1589.275,1692Zm-217.61-359.857c.232,1.044.364,1.643.5,2.241,4.622,20.445,10.24,40.725,13.665,61.368q11.8,71.118,21.775,142.534c6.132,43.551,38.789,76.168,82.654,81.141,47.054,5.334,91.445-26.151,100.341-72.63,5.439-28.422,8.762-57.253,12.856-85.926,4.747-33.255,10.055-66.4,17.749-99.125,2.308-9.817,4.728-19.607,7.144-29.6Zm224.342,262.079c-24.531,32.577-56.347,49.631-96.2,49.563-39.719-.068-71.458-17.2-95.795-49.555,0,20.249,0,39.483,0,58.717,0,10.807,4.194,15.052,14.874,15.052q81.16,0,162.322,0c1.124,0,2.252.04,3.373-.029,6.183-.377,11.318-5.171,11.364-11.323C1596.1,1636.174,1596.007,1615.7,1596.007,1594.222Z" transform="translate(-1344.148 -1308)"/>
</svg>
