<svg id="Livello_1" data-name="Livello 1" xmlns="http://www.w3.org/2000/svg" viewBox="0 0 228.029 384">
  <path d="M1437.75,1692.75c-.738-.423-1.466-.867-2.217-1.266-5.2-2.764-7.784-8.11-6.478-13.431a11.9,11.9,0,0,1,11.692-9.274c7.62-.1,15.243,0,22.865-.034,14.925-.061,25.107-10.271,25.128-25.276q.053-36.36.009-72.721c0-10.074-4.121-17.956-12.951-22.906a134.168,134.168,0,0,0-14.182-6.412c-38.622-16.07-61.951-45.034-71.821-85.27-5.119-20.865-3.638-41.8,1.219-62.37,5.788-24.5,12.722-48.731,19.069-73.1,1.438-5.524,4.269-9.72,9.667-11.938h162c5.395,2.22,8.028,6.483,9.691,11.926,8.207,26.857,15.836,53.837,20.729,81.547,7.044,39.894-.781,75.97-27.237,107.233-14.137,16.705-32.052,27.7-52.745,34.886-11.114,3.858-19.282,11.835-19.382,25.274-.186,24.988-.12,49.979-.026,74.968.052,13.715,10.54,24.022,24.343,24.152,7.246.068,14.493.007,21.74.016,7.438.008,12.36,3.5,13.669,9.667,1.226,5.781-1.733,10.712-8.274,13.816-.2.1-.34.34-.508.515Zm153.314-263.034c-.522-5.671-.808-10.916-1.516-16.1-3.642-26.675-11.047-52.454-18.667-78.188-.791-2.669-2.265-2.7-4.386-2.7q-65.79.05-131.58-.038c-2.556,0-3.7.671-4.442,3.175-7.1,23.932-13.736,47.964-17.888,72.631-4.375,25.986-.826,50.487,13.126,73.123,23.406,37.976,69.055,53.721,108.342,36.122C1571.82,1500.821,1588.607,1469.52,1591.064,1429.716Z" transform="translate(-1386.596 -1308.75)"/>
</svg>
