<svg width="26" height="31" viewBox="0 0 26 31" fill="none" xmlns="http://www.w3.org/2000/svg">
<g id="Group 30">
<path id="Vector" d="M18.0966 7.2276L18.0931 7.20492L18.0875 7.18266C18.0231 6.92553 17.933 6.17279 18.1414 5.4523L18.1459 5.4365L18.1495 5.42043C18.2793 4.82788 18.5254 4.25266 18.9047 3.73794C19.6474 2.73005 20.7768 2.12505 21.9281 1.91511C23.0435 1.71171 24.1135 1.88969 24.8252 2.35479C24.8221 2.41281 24.8084 2.50294 24.774 2.63059C24.687 2.95289 24.5045 3.38568 24.2619 3.87977C23.8858 4.64592 23.4018 5.48825 23.0018 6.18439C22.89 6.37884 22.7849 6.56189 22.6904 6.72868C22.0978 7.67494 21.3507 8.56903 20.6711 9.14927C20.3275 9.44262 20.0269 9.63346 19.7928 9.72223C19.5532 9.81313 19.4846 9.76387 19.48 9.76059L19.4799 9.76055C18.7928 9.26831 18.2679 8.33445 18.0966 7.2276ZM24.8238 2.2961C24.8238 2.29609 24.8239 2.29645 24.824 2.2972L24.8238 2.2961ZM23.5441 7.24957L23.5499 7.24032L23.5553 7.23083C23.645 7.07223 23.7475 6.89383 23.8582 6.70131C24.2594 6.00322 24.7674 5.11944 25.1596 4.32044C25.4089 3.81271 25.6265 3.30962 25.7394 2.8911C25.7952 2.68437 25.835 2.46471 25.824 2.25971C25.8131 2.05677 25.7452 1.78096 25.493 1.60034C24.5059 0.893196 23.0981 0.685261 21.7487 0.931337C20.3894 1.1792 19.0174 1.89923 18.0997 3.14472C17.6343 3.77628 17.3346 4.47719 17.1762 5.19047C16.918 6.09775 17.0182 7.00868 17.1117 7.40207C17.3164 8.69299 17.9435 9.89004 18.8976 10.5735C19.2965 10.8592 19.7676 10.8013 20.1475 10.6572C20.534 10.5106 20.9355 10.2384 21.3204 9.90978C22.0957 9.24789 22.9088 8.26605 23.5441 7.24957ZM19.6452 8.78957L19.9359 9.0919L20.2842 8.8582C20.3667 8.80286 20.4589 8.73572 20.5582 8.65718C20.7745 8.48631 21.2183 8.063 21.8654 7.41908L22.0574 7.2281L22.0023 6.963L21.741 5.70469L23.0088 5.48213L23.2379 5.44192L23.3547 5.24079C23.5857 4.84316 23.7673 4.52447 23.8986 4.28604C24.0226 4.06103 24.1193 3.87659 24.1613 3.7671C24.2065 3.64942 24.2428 3.54196 24.2708 3.44718L24.3924 3.0355L24.0039 2.85298C23.2637 2.50525 22.342 2.48106 21.5098 2.68414C20.6763 2.88752 19.854 3.33803 19.3411 4.03403C18.8276 4.73085 18.646 5.64422 18.7077 6.49288C18.7693 7.33999 19.0789 8.20069 19.6452 8.78957ZM21.4498 5.51112L21.4498 5.5111L21.4498 5.51112Z" fill="black" stroke="black"/>
<g id="Group">
<path id="Vector_2" d="M3.01167 30.3347H22.6727C23.9015 30.3347 24.8846 29.3517 24.8846 28.1229V6.98729C24.8846 6.59407 24.5405 6.25 24.1473 6.25H1.53709C1.14387 6.25 0.799805 6.59407 0.799805 6.98729V28.1229C0.799805 29.3517 1.78286 30.3347 3.01167 30.3347ZM2.27438 7.72458H23.41V19.6195H21.4439L20.8049 17.85C20.7557 17.6534 20.6083 17.5059 20.4117 17.4568C20.2151 17.3585 20.0185 17.3585 19.871 17.4568L15.6439 18.9805V18.9314C15.7913 18.5381 15.5947 18.1449 15.2015 17.9975L9.64726 15.9822C9.25404 15.8347 8.86082 16.0314 8.71337 16.4246L7.5337 19.6195H2.27389C-0.54394 20.0673 3.06078 20.5768 1.53709 20.2585C1.53709 20.6517 1.88116 21.0941 2.27438 21.0941H7.04217L6.74726 21.9297C6.5998 22.3229 6.79641 22.7161 7.18963 22.8636L12.7439 24.8788C12.8422 24.928 12.8913 24.928 12.9896 24.928C13.2846 24.928 13.5795 24.7314 13.6778 24.4364L14.5625 22.0771L15.9388 25.911C15.9879 26.1076 16.1354 26.2551 16.332 26.3042C16.4303 26.3534 16.5286 26.3534 16.6269 26.3534C16.7252 26.3534 16.7744 26.3534 16.8727 26.3042L22.4269 24.289C22.8201 24.1415 23.0168 23.7483 22.8693 23.3551L22.0337 21.0449H23.5083V28.1229C23.5083 28.5161 23.1642 28.8602 22.771 28.8602H3.01167C2.61845 28.8602 2.27438 28.5161 2.27438 28.1229V7.72458ZM21.149 23.2076L17.0201 24.6822L15.693 21.0449H20.4117L21.149 23.2076ZM8.56591 21.0941H13.2846L12.4981 23.2568L8.32015 21.7331L8.56591 21.0941ZM13.8252 19.6195H9.10659L9.84388 17.6042L14.0218 19.128L13.8252 19.6195ZM18.1015 19.6195L19.6252 19.0788L19.8218 19.6195H18.1015Z" fill="black"/>
</g>
</g>
</svg>
