<svg id="Livello_1" data-name="Livello 1" xmlns="http://www.w3.org/2000/svg" viewBox="0 0 1007.61391 1040.00001">
  <g>
    <path d="M1865,981c1.06567.6316,2.07574,1.68208,3.20532,1.83208,17.42273,2.31356,32.57569,9.87289,46.37458,20.30669a104.03277,104.03277,0,0,1,30.8963,38.09532c7.45044,15.36252,10.23669,31.78542,9.91333,49.01643-.54786,29.19342-12.52655,53.0803-32.70923,73.11422-11.39313,11.30923-25.40808,19.1439-40.652,24.15377-14.1413,4.64751-28.87561,5.62507-43.70044,4.30141-3.77356-.33693-7.48126-1.48933-11.25317-1.726a5.12044,5.12044,0,0,0-4.01911,2.30623q-10.01211,20.98032-19.6062,42.15956c-5.99518,13.21695-11.70587,26.56287-17.69775,39.78131-8.72681,19.25177-17.65564,38.412-26.3822,57.66379-8.15308,17.98667-16.01429,36.10681-24.29248,54.035-3.28626,7.11694-9.36829,10.7767-17.2652,10.84292-9.49719.07965-19.04645.50818-28.4845-.27853-19.642-1.63724-39.34759-2.98422-58.55218-8.062-15.4245-4.07825-30.99115-7.61768-46.42243-11.67145-12.38049-3.25235-24.4928-7.71341-37.00757-10.22571-22.59546-4.53589-45.429-7.50046-68.61853-5.25766-11.21893,1.085-22.54168,1.339-33.68139,2.92478-9.26886,1.31945-18.40018,3.80282-27.48041,6.19561-9.66248,2.54624-19.35147,5.15277-28.74133,8.532-11.69681,4.20938-23.43213,8.56344-34.553,14.06387-17.8028,8.80524-24.34552,2.48675-33.17307-8.47321q-27.88476-34.62079-55.96887-69.081c-14.99652-18.49573-30.05316-36.94312-44.95981-55.511-4.68634-5.83734-5.29785-12.63919-2.15146-19.24371,3.21329-6.745,8.75644-10.7971,16.60443-10.89354,2.49942-.03072,4.99939-.02321,7.49912-.02322q255.975-.00138,511.94995-.00084c11.31891,0,11.23993-.03431,15.64868-10.18673,6.0492-13.92993,11.89069-27.96926,18.57166-41.5937,1.94873-3.97391.94653-5.60641-1.79853-7.51868-10.74969-7.48843-19.08838-17.15384-25.87371-28.26826-5.91248-9.68462-11.09113-19.65209-12.84131-31.06032-1.09955-7.1674-3.28626-14.32943-3.21045-21.475.0957-9.013,1.97741-18.00978,3.12933-27.00834,1.57666-12.31717,7.21259-23.11427,13.74841-33.25053,12.83033-19.89831,30.38642-34.29041,53.0116-41.93546,5.91852-1.99987,12.12811-3.12852,18.17212-4.77463A16.73889,16.73889,0,0,0,1836,981Z" transform="translate(-997.76334 -980.99999)"/>
    <path d="M1592,2021c-.041-5.33118-.11713-10.66235-.11749-15.99353q-.011-139.98843.07019-279.97681a17.87647,17.87647,0,0,0-4.28028-12.42761c-17.36157-21.0918-34.23217-42.58667-51.45953-63.79022-21.26257-26.17-42.78027-52.13251-64.058-78.2901q-38.89756-47.81819-77.574-95.81622c-6.96609-8.61921-14.37472-16.95456-20.566-26.10639-6.87921-10.16858-2.04062-22.95523,8.9531-27.31512,11.69687-4.63874,23.43158-9.3978,35.52258-12.76612,12.03641-3.35305,24.44113-6.12585,36.85413-7.211a474.00175,474.00175,0,0,1,55.75482-1.84747c11.59814.3573,23.18023,3.51358,34.621,6.07684,12.01068,2.69092,23.84662,6.1633,35.75409,9.31244,12.5357,3.31531,25.02789,6.80564,37.61487,9.91224a157.81948,157.81948,0,0,0,18.04846,3.22079q20.89608,2.63567,41.851,4.798a149.43514,149.43514,0,0,0,19.42743,1.21659c7.51208-.19947,12.3158,7.14239,9.06549,14.64807-2.1272,4.91226-4.21478,9.84582-6.504,14.68283-3.98938,8.42923,2.668,23.69156,15.15784,24.18042,10.95288.42874,16.81128-3.46249,21.05463-13.69794,4.41162-10.64139,9.68048-20.92428,14.40551-31.43988,3.49933-7.7879,10.19916-10.88467,17.86908-12.09259,11.7453-1.84976,23.6352-2.81595,35.34693-4.83447,8.26727-1.4249,16.34906-3.94071,24.4992-6.02609,8.74945-2.23883,17.46436-4.61527,26.22913-6.79142,4.68793-1.16384,8.26514,1.17255,10.43829,4.90149,2.55762,4.3884.7323,8.55448-2.254,12.21836q-36.1485,44.35116-72.30359,88.69687-31.47492,38.61291-62.9364,77.23669-32.11039,39.52963-64.11133,79.14832c-10.95947,13.51312-22.08252,26.89569-32.869,40.54486a13.14662,13.14662,0,0,0-2.25324,7.661q-.16644,145.73777-.10034,291.47583c-.00012,2.16382-.0982,4.32751-.15051,6.49133Z" transform="translate(-997.76334 -980.99999)"/>
    <path d="M1335.50922,1192.16635c-32.99442.00336-65.99039-.19456-98.9827.0685-24.6135.19624-42.73694,11.45505-52.9239,33.99673-9.57753,21.1931-5.84983,41.01848,8.52829,58.85887q42.588,52.84338,85.47151,105.44855c13.96933,17.2385,27.63385,34.73169,41.90909,51.71213,10.67663,12.69995,2.93249,29.29755-12.06336,31.99823-10.178,1.833-20.022,5.44907-30.12778,7.7803a96.694,96.694,0,0,1-19.08743,2.7815c-15.65.39865-31.41244,1.21063-46.948-.1771-13.54428-1.20984-27.05148-4.45379-40.18431-8.17721a221.60249,221.60249,0,0,1-35.63248-13.41916,316.43717,316.43717,0,0,1-37.07295-21.21829c-23.64294-15.64484-42.866-36.02982-59.00033-59.19022-10.08917-14.48273-18.76458-29.878-24.61752-46.67435-3.50274-10.05188-7.60969-19.94973-10.2745-30.22052-2.42971-9.36462-3.50875-19.10925-4.75694-28.74163-1.02537-7.91294-2.28885-15.94764-1.91565-23.85614.69491-14.72614,2.06948-29.45719,4.00421-44.0746,1.26361-9.54694,3.70053-18.97983,6.16865-28.31662,3.8622-14.61046,9.87189-28.41593,16.84918-41.80471,16.48878-31.64039,39.26522-58.02533,67.48434-79.65,14.47667-11.09364,29.99344-20.82565,47.05621-27.41272,14.98169-5.78369,30.34531-10.665,45.75875-15.20261,6.56877-1.9338,13.66938-2.39312,20.57078-2.797,15.22275-.89081,30.51392-2.31557,45.70038-1.68206,18.12738.75618,36.118,3.7529,53.28534,10.21717,12.0578,4.54031,24.48029,8.36085,36,14.01117a236.97332,236.97332,0,0,1,32.88794,19.95005,233.26961,233.26961,0,0,1,55.70749,56.62612,237.25891,237.25891,0,0,1,27.8096,52.58026c5.28894,14.00171-4.07752,26.81261-18.62341,26.68137C1404.16537,1191.95262,1369.83636,1192.163,1335.50922,1192.16635Zm-239.33567,75.95542.1384-.97767c3.99455,0,8.003-.21524,11.981.04139,10.85094.7,18.91165-10.19169,18.75043-18.69519-.178-9.38422-8.35288-18.70751-18.92666-18.608-7.15625.06735-14.32089-.18346-21.46736.08786a29.49673,29.49673,0,0,0-9.50755,1.89378c-7.03493,2.76251-10.63623,8.53-11.14322,15.79416-.53715,7.69653,2.93817,14.38947,9.94106,17.09036C1082.18845,1267.15848,1089.39156,1267.09418,1096.17355,1268.12177Zm157.00669-157.9531-.03485-.00058c0-4.8167.23837-9.64795-.0546-14.44677-.46494-7.61559-7.57761-15.12913-14.4863-15.71426-10.88495-.92189-20.18808,3.9959-21.10779,12.99684a175.36088,175.36088,0,0,0-.131,33.631c.80371,8.77675,9.82978,14.40488,18.89209,13.70862,9.17649-.70505,16.309-7.41173,16.87033-16.22513C1253.42316,1119.48619,1253.18024,1114.81969,1253.18024,1110.16867Z" transform="translate(-997.76334 -980.99999)"/>
    <path d="M1780.18335,1379.55566c2.03235-4.76959,3.9809-9.57693,6.1109-14.30249q17.28681-38.35116,34.65649-76.665,10.71773-23.62542,21.59363-47.17875c3.4513-7.43928,9.27057-11.52468,17.676-11.52378q62.97345.00672,125.9469-.01326c7.62732-.00562,13.17016,3.66615,16.6969,10.018,3.66,6.59213,3.45922,13.28394-1.50745,19.44376q-22.78913,28.26371-45.54077,56.55765c-3.79,4.70086-8.26709,8.96725-11.37457,14.07452-6.68274,10.98306-17.39405,16.11182-28.45539,20.66922-16.47827,6.78921-33.03772,13.42346-49.79828,19.47024-10.31433,3.72117-21.02728,6.375-31.63488,9.235-10.93586,2.94858-21.9065,5.81845-32.9729,8.20932a49.74755,49.74755,0,0,1-14.55866.87775C1782.38629,1388.03043,1780.50116,1384.47031,1780.18335,1379.55566Z" transform="translate(-997.76334 -980.99999)"/>
  </g>
</svg>
